HIERARCHY
ROOT Hips
{
  OFFSET -33.9132 29.2015 117.021
  CHANNELS 6 Xposition Yposition Zposition Zrotation Xrotation Yrotation
  JOINT LeftUpLeg
  {
    OFFSET 8.64259 1.95398 -2.38835
    CHANNELS 3 Zrotation Xrotation Yrotation
    JOINT LeftLeg
    {
      OFFSET 43.7702 0 0
      CHANNELS 3 Zrotation Xrotation Yrotation
      JOINT LeftFoot
      {
        OFFSET 40.6238 0 0
        CHANNELS 3 Zrotation Xrotation Yrotation
        JOINT LeftToeBase
        {
          OFFSET 12.7242 0 0
          CHANNELS 3 Zrotation Xrotation Yrotation
          End Site
          {
            OFFSET 0 0 0
          }
        }
      }
    }
  }
  JOINT RightUpLeg
  {
    OFFSET -8.2249 1.95398 -2.59336
    CHANNELS 3 Zrotation Xrotation Yrotation
    JOINT RightLeg
    {
      OFFSET 43.5653 0 0
      CHANNELS 3 Zrotation Xrotation Yrotation
      JOINT RightFoot
      {
        OFFSET 40.6238 0 0
        CHANNELS 3 Zrotation Xrotation Yrotation
        JOINT RightToeBase
        {
          OFFSET 12.7242 0 0
          CHANNELS 3 Zrotation Xrotation Yrotation
          End Site
          {
            OFFSET 0 0 0
          }
        }
      }
    }
  }
  JOINT Spine
  {
    OFFSET 0.165834 0.87714 6.61349
    CHANNELS 3 Zrotation Xrotation Yrotation
    JOINT Spine1
    {
      OFFSET 7.38963 1.71661e-005 0
      CHANNELS 3 Zrotation Xrotation Yrotation
      JOINT Spine2
      {
        OFFSET 11.9445 1.14441e-005 0
        CHANNELS 3 Zrotation Xrotation Yrotation
        JOINT Spine3
        {
          OFFSET 14.7254 4.19617e-005 0
          CHANNELS 3 Zrotation Xrotation Yrotation
          JOINT Spine4
          {
            OFFSET 10.9679 0 0
            CHANNELS 3 Zrotation Xrotation Yrotation
            JOINT RightShoulder
            {
              OFFSET 2.46616 -1.6653 3.69651
              CHANNELS 3 Zrotation Xrotation Yrotation
              JOINT RightArm
              {
                OFFSET 13.0012 0 0
                CHANNELS 3 Zrotation Xrotation Yrotation
                JOINT RightForeArm
                {
                  OFFSET 28.7848 1.62311e-005 0
                  CHANNELS 3 Zrotation Xrotation Yrotation
                  JOINT RightHand
                  {
                    OFFSET 26.5688 1.62095e-005 0
                    CHANNELS 3 Zrotation Xrotation Yrotation
                    End Site
                    {
                      OFFSET 0 0 0
                    }
                  }
                }
              }
            }
            JOINT LeftShoulder
            {
              OFFSET 2.38034 -1.29275 -3.7523
              CHANNELS 3 Zrotation Xrotation Yrotation
              JOINT LeftArm
              {
                OFFSET 16.3182 6.07031e-005 0
                CHANNELS 3 Zrotation Xrotation Yrotation
                JOINT LeftForeArm
                {
                  OFFSET 27.0901 0 0
                  CHANNELS 3 Zrotation Xrotation Yrotation
                  JOINT LeftHand
                  {
                    OFFSET 24.5451 1.51738e-005 0
                    CHANNELS 3 Zrotation Xrotation Yrotation
                    End Site
                    {
                      OFFSET 0 0 0
                    }
                  }
                }
              }
            }
            JOINT Neck
            {
              OFFSET 5.0226 -0.0266342 0
              CHANNELS 3 Zrotation Xrotation Yrotation
              JOINT Head
              {
                OFFSET 6.69364 2.86102e-005 0
                CHANNELS 3 Zrotation Xrotation Yrotation
                End Site
                {
                  OFFSET 0 0 0
                }
              }
            }
          }
        }
      }
    }
  }
}
MOTION
Frames:	11
Frame Time:	0.0416667
-331.882 85.6725 311.72 59.856 64.6399 125.677 177.867 -1.84073 104.14 -60.7001 21.3359 12.8072 29.4005 -11.4807 -15.6485 109.5 19.2822 -33.8696 159.049 35.3418 94.5235 -52.5429 1.13616 19.726 83.698 -10.2604 7.27224 21.7824 2.65501 1.88797 -3.30546 7.03677 -91.6658 12.7361 -7.36055 -2.4577 1.0844 -7.46153 -2.12981 -21.5623 -6.28122 -4.5623 -1.54967 -6.28121 -4.56231 115.469 -40.1791 -58.6964 46.6956 -7.67398 -36.485 -21.7204 -60.3204 -23.3574 -52.1867 46.4433 -88.3372 -78.1618 -3.75309 95.5803 -82.943 -14.4086 -45.0034 7.99528 7.80281 -67.2639 15.2649 -8.07403 -50.8923 67.1318 -16.9005 -22.8758 -56.7121 -9.55018 24.2968 
-324.801 84.389 305.484 74.2395 45.9737 115.861 -176.094 12.3558 101.529 -88.0847 10.9394 5.60522 51.7609 -4.22401 4.00091 93.2774 22.0498 -15.4376 164.164 30.1966 105.498 -55.136 0.352816 10.24 90.5309 -14.5143 9.72174 24.0369 -0.31319 8.56056 -1.48056 7.66761 -92.085 11.4626 -3.91897 -3.74743 -0.207395 -4.07997 -3.5714 -22.7236 -2.61305 -4.7506 -2.7109 -2.61306 -4.75061 103.761 -42.8838 -79.4205 34.1215 2.32769 11.7989 -47.3626 -15.8926 -74.1865 -47.9926 33.7676 -68.7692 -87.2406 -29.6687 77.4202 -32.1114 -43.9088 -20.7962 -21.8677 0.213975 -86.8565 20.1046 -8.18119 -46.2749 51.8291 -0.145826 -16.3318 -35.3704 5.2027 16.4409 
-318.329 82.8629 299.334 78.5122 27.6364 109.572 -165.454 35.68 94.3102 -106.479 9.09285 3.62754 59.2821 0.265985 8.90213 71.3756 16.8253 -5.46532 173.193 28.1233 105.617 -56.1951 -11.0576 3.47939 90.9019 -19.3412 4.15455 28.9278 -1.36489 5.47276 0.26693 7.93331 -91.9208 10.9821 -0.358495 -3.79468 -0.694382 -0.525041 -3.77528 -23.1855 0.797607 -3.72731 -3.17286 0.797611 -3.72731 91.2273 -30.6043 -104.291 28.6141 3.87063 22.7421 -30.1534 3.39595 -101.802 -47.888 11.8595 -35.1571 -84.1932 -39.9755 86.1432 13.7324 -43.8629 19.5224 -31.2747 13.6747 -100.221 23.2721 -10.7514 -52.781 35.1854 10.6818 1.25161 -13.9657 9.27409 3.60708 
-308.684 83.6557 291.002 80.25 23.5874 103.884 -165.108 49.2252 90.382 -106.952 10.6167 3.45413 66.6211 6.30638 14.7078 26.2568 2.6131 -8.24812 175.995 16.9532 97.9753 -51.9147 -17.1956 0.179039 89.8149 -22.9045 -3.8831 33.6209 -4.04671 9.71774 1.80467 7.6975 -91.2565 11.5207 3.00249 -2.8133 -0.150133 2.87581 -2.94268 -22.7015 3.70905 -1.78056 -2.68888 3.70905 -1.78056 91.8333 -21.3074 -106.246 26.2105 15.3803 14.382 -27.0564 6.51633 -107.841 -54.869 14.4364 -32.8789 -83.157 -35.766 87.3692 31.3608 -26.7125 32.7534 7.95989 -0.806933 -111.697 24.7941 -15.4212 -60.4331 26.8778 6.04922 4.58436 -8.45664 3.96663 1.57869 
-296.987 87.1641 280.361 82.4376 26.5828 99.5901 -171.108 52.5097 89.4883 -90.8294 -3.25108 2.97119 75.1332 9.95282 6.86442 17.3023 -1.10045 -7.98258 173.611 0.268985 91.2648 -38.0727 -22.6975 -1.05602 72.901 -10.4517 -4.4867 48.6577 -9.24963 12.5809 2.84762 7.66216 -90.7434 11.6056 5.31665 -2.03165 -0.0564063 5.2221 -2.26418 -22.6782 5.68074 -0.335038 -2.66556 5.68072 -0.335052 96.0355 -8.49327 -101.228 25.9505 14.2671 18.4367 -25.2114 8.126 -112.897 -65.9589 15.0906 -28.4722 -82.9591 -28.0414 86.604 20.9578 -4.96982 34.9054 28.4737 -17.0728 -111.611 32.906 -20.283 -59.2956 25.8454 -0.504115 4.07249 -11.1441 -1.95362 -0.257947 
-283.942 90.9033 268.797 82.316 33.2271 96.598 -177.285 50.6239 87.7197 -66.246 -4.05088 2.01444 75.5233 10.6285 5.72031 17.0428 -1.95473 -6.5708 173.019 -13.4032 88.9377 -24.8671 -25.4394 -3.78433 56.2179 2.712 -0.271925 30.5257 -3.4341 12.6474 3.11145 7.55225 -89.9312 11.8128 6.22011 -0.53324 0.156594 6.19059 -0.807543 -22.4957 6.09176 1.368 -2.48303 6.09175 1.36799 97.1708 -3.27129 -100.072 25.6013 14.9892 32.5795 -29.1352 12.3022 -117.143 -59.9548 15.0757 -31.5816 -82.6829 -18.9187 85.4353 -16.7287 23.0193 43.2897 65.7338 -24.5853 -79.3951 52.1994 -29.4217 -53.2989 27.4139 -7.77766 -3.077 -16.4765 -6.35501 0.188312 
-270.911 93.2747 257.478 83.0695 33.2046 93.6665 -178.016 43.1035 87.8926 -37.7097 3.64042 -0.2805 69.5917 7.77946 3.7152 25.7904 -0.337624 -2.21816 172.467 -18.8144 85.8269 -28.9166 -26.4166 -7.24368 58.1195 1.71104 -2.76083 15.3591 2.1103 11.0102 3.63085 7.44412 -89.0966 11.9626 7.64474 0.977481 0.314111 7.68033 0.63807 -22.3756 6.99587 3.24056 -2.36294 6.99587 3.24054 96.4069 -5.5001 -101.505 25.8895 7.96008 35.5312 -33.4007 14.2842 -116.318 -66.4244 14.8244 -28.1719 -82.7215 -15.9159 84.7288 -40.5674 33.6577 56.3565 84.1466 10.0913 -63.0165 85.5535 -33.9569 -32.2647 23.8779 -12.1832 -9.75977 -16.3903 -8.31657 -0.444575 
-259.349 93.2027 246.622 82.848 37.4592 98.068 -179.087 38.0439 90.7312 -19.901 13.2815 -0.484214 68.3012 7.37274 1.20086 22.9903 -5.6056 5.74466 172.091 -21.1618 89.9538 -33.0163 -12.8397 -1.31382 59.4054 1.16895 -0.585222 21.2725 -0.776598 13.5125 3.27487 7.17604 -89.5705 12.5507 6.71187 0.0948746 0.897096 6.70948 -0.201965 -21.7676 6.37193 2.11595 -1.75495 6.37194 2.11594 95.5343 -9.06461 -102.477 28.3172 -3.9783 37.5839 -33.1633 12.2788 -113.484 -50.8285 16.1853 -38.9392 -83.1324 -24.7948 85.6588 -33.9923 31.6538 50.5288 84.6323 26.5943 -70.7499 85.724 -27.0999 -24.6223 21.4283 -11.9371 -8.82701 -15.1849 -8.57141 -1.12961 
-248.118 92.7995 234.104 93.3474 37.8501 89.813 -177.644 27.6119 87.5134 -22.6853 7.07176 -0.713392 62.814 2.29213 1.90665 18.8302 -7.39585 4.90178 165.804 -23.9374 81.8749 -47.9342 -11.7052 -2.06324 63.2011 -2.81311 -3.65486 19.9045 0.679829 10.387 2.96704 7.86186 -89.6452 11.1602 6.0703 0.11358 -0.496524 6.0694 -0.154704 -23.1373 5.75457 1.93883 -3.12468 5.75456 1.93882 94.2559 -15.6547 -102.985 37.2314 -15.2558 38.3262 -38.1799 5.79846 -101.321 -44.3687 12.6977 -36.1322 -84.3074 -36.541 85.4341 -26.1893 27.2653 38.1478 72.8503 28.6152 -70.4643 74.1263 -19.617 -21.7796 18.666 -10.4978 -9.18537 -14.8237 -7.36904 -0.609701 
-238.172 90.9055 224.888 90.3208 40.9683 92.5977 -173.821 32.9301 86.7748 -43.0909 14.236 -2.71368 66.6774 4.90679 6.5474 17.8185 -2.19542 -5.61925 167.533 -7.73079 84.7663 -70.3021 -3.06752 -1.25035 64.9067 -4.50289 -5.37291 14.9689 2.76578 9.68057 1.93988 7.43816 -89.6076 11.9977 4.04197 0.344879 0.332961 4.05324 0.166363 -22.2455 3.75108 1.54527 -2.23282 3.75111 1.54528 93.6755 -22.102 -101.837 47.4806 -12.436 35.801 -46.9753 -9.88019 -84.0302 -36.1783 8.89586 -32.1953 -87.0428 -47.719 82.759 -15.8171 19.9866 20.0787 66.5065 31.6961 -70.2892 72.0623 -17.1984 -19.6719 16.3095 -8.40389 -12.4586 -13.3281 -4.84742 1.86739 
-229.194 89.1302 215.436 94.5855 43.4935 84.2516 -172.103 22.7114 80.6646 -49.9866 14.469 -3.36612 79.6028 15.8944 7.30283 19.0439 -5.5238 1.79412 168.859 6.6433 83.7028 -88.2637 -1.06001 -3.24662 70.0999 -8.84309 -7.70898 15.1204 2.53692 10.1211 0.624199 7.86898 -89.0454 11.1188 1.6854 1.73302 -0.55192 1.76 1.65716 -23.0837 1.08677 2.15934 -3.07103 1.08677 2.15935 93.7516 -23.1838 -101.314 50.6923 -2.76671 32.8967 -52.2217 -29.3601 -69.2539 -33.1321 7.29548 -29.7372 -88.1223 -53.0474 82.0869 -6.51214 13.0307 -7.21311 67.2902 35.9261 -72.1489 71.5123 -14.4123 -16.1632 15.3257 -4.29635 -10.4776 -11.9043 -1.28779 -0.426058 
